<svg version="1.1" viewBox="0 0 467.94 56.11">
<g transform="translate(-240.56 -428.16)">
<text x="254.28571" y="438.07648" fill="#000000" font-family="Ubuntu" font-size="50px" font-weight="500" letter-spacing="0px" stroke-width="1px" word-spacing="0px" style="line-height:125%" xml:space="preserve"><tspan x="254.28571" y="438.07648"/></text>
<text x="414.28571" y="578.07648" fill="#000000" font-family="sans-serif" font-size="40px" letter-spacing="0px" stroke-width="1px" word-spacing="0px" style="line-height:125%" xml:space="preserve"><tspan x="414.28571" y="578.07648"/></text>
<path d="m253.93 444.5v35.801l2.5884 2.547h27.111v-3.4553c-15.38-0.0285-26.236-7e-3 -26.236-7e-3v-34.885z" fill="#0ea5e9" fill-rule="evenodd"/>
<path d="m248.46 444.45v30.066l3.2842 3.6107v-33.676z" fill="#0ea5e9" fill-rule="evenodd"/>
<path d="m243.14 444.49v24.88l3.1418 2.9892 2.3e-4 -27.869z" fill="#0ea5e9" fill-rule="evenodd"/>
<path d="m287.02 468.48v-35.649l-2.5884-2.5471h-27.121v3.4553c15.38 0.0283 26.246 7e-3 26.246 7e-3v34.734z" fill="#0ea5e9" fill-rule="evenodd"/>
<path d="m292.68 468.45v-29.863l-3.2842-3.503v33.366z" fill="#0ea5e9" fill-rule="evenodd"/>
<path d="m298.28 468.47v-24.78l-3.1418-3.0753-2.2e-4 27.856z" fill="#0ea5e9" fill-rule="evenodd"/>
<path d="m259.35 477.4h24.253l-4.7e-4 -3.2047h-24.252z" fill="#0ea5e9" fill-rule="evenodd"/>
<path d="m259.34 471.86h24.253l-4.8e-4 -3.2046h-24.252z" fill="#0ea5e9" fill-rule="evenodd"/>
<path d="m257.4 444.3h24.28l-4.8e-4 -3.2047h-24.28z" fill="#0ea5e9" fill-rule="evenodd"/>
<path d="m257.39 438.96h24.281l-4.7e-4 -3.2047h-24.28z" fill="#0ea5e9" fill-rule="evenodd"/>
<text x="596.95911" y="472.54541" fill="#000000" font-family="sans-serif" font-size="40px" letter-spacing="0px" stroke-width="1px" word-spacing="0px" style="line-height:125%" xml:space="preserve"><tspan x="596.95911" y="472.54541"/></text>
<rect x="647.06" y="444.4" opacity="0"/>
</g>
</svg>
