<?xml version="1.0" encoding="utf-8"?>
<!-- Generator: Adobe Illustrator 18.0.0, SVG Export Plug-In . SVG Version: 6.00 Build 0)  -->
<!DOCTYPE svg PUBLIC "-//W3C//DTD SVG 1.1//EN" "http://www.w3.org/Graphics/SVG/1.1/DTD/svg11.dtd">
<svg version="1.1" id="Layer_1" xmlns="http://www.w3.org/2000/svg" xmlns:xlink="http://www.w3.org/1999/xlink" x="0px" y="0px"
	 viewBox="0 0 87.8 87.9" enable-background="new 0 0 87.8 87.9" xml:space="preserve">
<g>
	<g>
		<path fill="#DA5E33" d="M74.4,13.1c-6.9-6.9-16.5-11-25.4-12.6c-0.3-0.1-1.1-0.2-1.4,0c-0.2,0.2-0.1,0.8-0.1,0.8l2.6,11.2
			c0,0,0.1,0.5,0.3,0.8c0.3,0.3,0.7,0.5,0.9,0.5c5.1,1.3,10,3.7,14.3,8.1c6.4,6.4,9.6,14.7,9.6,22.9c0,7.9-2.9,15.7-8.8,21.7
			c-5.9,5.9-13.8,8.9-21.7,8.8c-8.2,0-16.5-3.2-22.9-9.6c-4.3-4.3-6.7-9.2-8.1-14.3c0-0.2-0.2-0.6-0.5-0.9c-0.3-0.2-0.8-0.3-0.8-0.3
			L1.2,47.6c0,0-0.6-0.1-0.8,0.1c-0.2,0.3-0.1,1.1,0,1.4C2,58,6.1,67.6,13,74.5c8.9,8.9,20.5,13.4,32.1,13.4
			c11.1,0,22-4.1,30.3-12.4l0,0c0,0,0,0,0,0c0,0,0,0,0,0l0,0c8.3-8.3,12.4-19.3,12.4-30.3C87.8,33.6,83.3,22,74.4,13.1z"/>
	</g>
	<path fill="#DA5E33" d="M39.8,11.3c-6.5-6.7-21.5-4.1-16.6,12c-16.1-4.9-18.7,10.1-12,16.6c5.9,5.7,40.3,11.6,40.3,11.6
		C51.5,51.6,45.6,17.2,39.8,11.3z"/>
</g>
</svg>
